<svg width="187" height="117" viewBox="0 0 187 117" fill="none" xmlns="http://www.w3.org/2000/svg">
<rect x="0.628906" y="0.868164" width="185.907" height="115.264" rx="20" fill="white"/>
<path d="M93.5827 34.7101L86.1283 21.7988H75.4578L93.5827 53.1923L111.708 21.7988H101.037L93.5827 34.7101Z" fill="black"/>
<path d="M114.19 21.7988L93.5827 57.4911L72.9752 21.7988H61.3066L93.5827 77.705L125.859 21.7988H114.19Z" fill="black"/>
<path d="M73.1982 98.0508L76.9688 87.1963H78.8057L74.0684 99.9932H72.7588L73.1982 98.0508ZM69.6738 87.1963L73.4092 98.0508L73.875 99.9932H72.5654L67.8369 87.1963H69.6738ZM87.8496 87.1963H89.5371V95.8535C89.5371 96.8145 89.3232 97.6143 88.8955 98.2529C88.4678 98.8916 87.8994 99.3721 87.1904 99.6943C86.4873 100.011 85.7227 100.169 84.8965 100.169C84.0293 100.169 83.2441 100.011 82.541 99.6943C81.8438 99.3721 81.29 98.8916 80.8799 98.2529C80.4756 97.6143 80.2734 96.8145 80.2734 95.8535V87.1963H81.9521V95.8535C81.9521 96.5215 82.0752 97.0723 82.3213 97.5059C82.5674 97.9395 82.9102 98.2617 83.3496 98.4727C83.7949 98.6836 84.3105 98.7891 84.8965 98.7891C85.4883 98.7891 86.0039 98.6836 86.4434 98.4727C86.8887 98.2617 87.2344 97.9395 87.4805 97.5059C87.7266 97.0723 87.8496 96.5215 87.8496 95.8535V87.1963ZM100.33 98.6133V99.9932H93.5537V98.6133H100.33ZM93.8965 87.1963V99.9932H92.2002V87.1963H93.8965ZM99.4336 92.6982V94.0781H93.5537V92.6982H99.4336ZM100.242 87.1963V88.585H93.5537V87.1963H100.242ZM102.211 99.1318C102.211 98.8564 102.296 98.625 102.466 98.4375C102.642 98.2441 102.894 98.1475 103.222 98.1475C103.55 98.1475 103.799 98.2441 103.969 98.4375C104.145 98.625 104.232 98.8564 104.232 99.1318C104.232 99.4014 104.145 99.6299 103.969 99.8174C103.799 100.005 103.55 100.099 103.222 100.099C102.894 100.099 102.642 100.005 102.466 99.8174C102.296 99.6299 102.211 99.4014 102.211 99.1318ZM106.975 90.4834H108.609V101.127C108.609 101.707 108.516 102.199 108.328 102.604C108.146 103.008 107.871 103.312 107.502 103.518C107.139 103.729 106.679 103.834 106.122 103.834C105.976 103.834 105.806 103.819 105.612 103.79C105.413 103.761 105.246 103.726 105.111 103.685L105.12 102.375C105.231 102.398 105.357 102.416 105.498 102.428C105.639 102.445 105.762 102.454 105.867 102.454C106.107 102.454 106.31 102.41 106.474 102.322C106.638 102.234 106.761 102.094 106.843 101.9C106.931 101.707 106.975 101.449 106.975 101.127V90.4834ZM106.808 87.9609C106.808 87.6973 106.89 87.4746 107.054 87.293C107.218 87.1113 107.455 87.0205 107.766 87.0205C108.082 87.0205 108.322 87.1113 108.486 87.293C108.65 87.4746 108.732 87.6973 108.732 87.9609C108.732 88.2129 108.65 88.4297 108.486 88.6113C108.322 88.7871 108.082 88.875 107.766 88.875C107.455 88.875 107.218 88.7871 107.054 88.6113C106.89 88.4297 106.808 88.2129 106.808 87.9609ZM116.774 97.4707C116.774 97.2363 116.722 97.0195 116.616 96.8203C116.517 96.6152 116.309 96.4307 115.992 96.2666C115.682 96.0967 115.213 95.9502 114.586 95.8271C114.059 95.7158 113.581 95.584 113.153 95.4316C112.731 95.2793 112.371 95.0947 112.072 94.8779C111.779 94.6611 111.554 94.4062 111.396 94.1133C111.237 93.8203 111.158 93.4775 111.158 93.085C111.158 92.71 111.24 92.3555 111.404 92.0215C111.574 91.6875 111.812 91.3916 112.116 91.1338C112.427 90.876 112.799 90.6738 113.232 90.5273C113.666 90.3809 114.149 90.3076 114.683 90.3076C115.444 90.3076 116.095 90.4424 116.634 90.7119C117.173 90.9814 117.586 91.3418 117.873 91.793C118.16 92.2383 118.304 92.7334 118.304 93.2783H116.678C116.678 93.0146 116.599 92.7598 116.44 92.5137C116.288 92.2617 116.062 92.0537 115.764 91.8896C115.471 91.7256 115.11 91.6436 114.683 91.6436C114.231 91.6436 113.865 91.7139 113.584 91.8545C113.309 91.9893 113.106 92.1621 112.978 92.373C112.854 92.584 112.793 92.8066 112.793 93.041C112.793 93.2168 112.822 93.375 112.881 93.5156C112.945 93.6504 113.057 93.7764 113.215 93.8936C113.373 94.0049 113.596 94.1104 113.883 94.21C114.17 94.3096 114.536 94.4092 114.981 94.5088C115.761 94.6846 116.402 94.8955 116.906 95.1416C117.41 95.3877 117.785 95.6895 118.031 96.0469C118.277 96.4043 118.4 96.8379 118.4 97.3477C118.4 97.7637 118.312 98.1445 118.137 98.4902C117.967 98.8359 117.718 99.1348 117.39 99.3867C117.067 99.6328 116.681 99.8262 116.229 99.9668C115.784 100.102 115.283 100.169 114.727 100.169C113.889 100.169 113.18 100.02 112.6 99.7207C112.02 99.4219 111.58 99.0352 111.281 98.5605C110.982 98.0859 110.833 97.585 110.833 97.0576H112.468C112.491 97.5029 112.62 97.8574 112.854 98.1211C113.089 98.3789 113.376 98.5635 113.716 98.6748C114.056 98.7803 114.393 98.833 114.727 98.833C115.172 98.833 115.544 98.7744 115.843 98.6572C116.147 98.54 116.379 98.3789 116.537 98.1738C116.695 97.9688 116.774 97.7344 116.774 97.4707Z" fill="black"/>
</svg>
