<svg width="187" height="117" viewBox="0 0 187 117" fill="none" xmlns="http://www.w3.org/2000/svg">
<rect x="0.160156" y="0.868164" width="185.907" height="115.264" rx="20" fill="white"/>
<path d="M138.77 54.4356C139.633 52.6195 140.494 50.7995 141.371 48.9531C141.196 48.9084 141.076 48.8703 140.955 48.8479C138.253 48.3219 135.533 47.9445 132.776 47.8616C130.428 47.7906 128.092 47.8866 125.776 48.318C123.665 48.7125 121.642 49.3569 119.786 50.4589C117.344 51.9054 115.587 53.9333 114.632 56.6252C114.179 57.939 113.923 59.3129 113.873 60.7019C113.79 62.543 113.974 64.3473 114.588 66.0937C115.533 68.7803 117.267 70.7648 119.89 71.9338C121.152 72.4862 122.504 72.8056 123.881 72.8767C125.531 72.9806 127.168 72.8859 128.746 72.327C129.087 72.2061 129.421 72.064 129.823 71.9023C129.823 73.0687 129.726 74.1655 129.376 75.2307C128.87 76.772 127.854 77.8179 126.325 78.3684C125.446 78.6747 124.526 78.8476 123.595 78.8813C120.553 79.0483 117.519 78.4134 114.799 77.0402C114.695 76.9937 114.588 76.9537 114.479 76.9206C114.465 77.0002 114.454 77.0805 114.448 77.1612C114.448 79.3232 114.448 81.4838 114.448 83.6458C114.435 83.7424 114.46 83.8402 114.519 83.9183C114.577 83.9964 114.663 84.0487 114.759 84.064C115.68 84.327 116.573 84.6571 117.497 84.878C119.893 85.45 122.328 85.5539 124.778 85.3619C126.291 85.258 127.784 84.9538 129.217 84.4572C132.413 83.317 134.723 81.2169 136.044 78.0765C136.67 76.5865 136.918 75.0045 137.079 73.4093C137.256 71.4947 137.329 69.5719 137.298 67.6494C137.281 65.01 137.219 62.372 137.167 59.7353C137.138 58.177 137.093 56.6199 137.06 55.0629C137.06 54.817 137.071 54.5698 137.077 54.2739L138.77 54.4356ZM128.974 66.4671C127.687 66.7854 126.392 66.8616 125.109 66.4671C123.514 65.9819 122.521 64.8785 122.053 63.311C121.534 61.6216 121.536 59.8151 122.059 58.127C122.595 56.3714 123.819 55.272 125.479 54.6118C126.783 54.0937 128.142 53.9648 129.529 54.0424C129.575 54.056 129.619 54.075 129.66 54.099C129.721 58.1283 129.779 62.1537 129.839 66.2146C129.532 66.3106 129.25 66.4027 128.974 66.4671Z" fill="black"/>
<path d="M49.6705 36.5508H42.0615V48.147C41.9758 48.1471 41.8902 48.1423 41.8051 48.1325C39.2137 47.5636 36.5182 47.6869 33.9897 48.4902C30.1023 49.7001 27.4735 52.2408 26.2229 56.136C25.3892 58.7267 25.3405 61.3765 25.877 64.0356C26.6661 67.9347 28.9688 70.5504 32.6956 71.9259C34.6682 72.6545 36.7158 72.9385 38.8015 73.003C41.8432 73.0977 44.8573 72.8176 47.853 72.3126C48.4711 72.2087 49.0879 72.0903 49.6941 71.9825C49.7862 71.4341 49.7612 36.8493 49.6705 36.5508ZM42.0431 66.621C41.7564 66.6631 41.4724 66.7196 41.1857 66.7525C40.2349 66.8353 39.2841 66.8998 38.3307 66.7762C36.8144 66.5789 35.4915 66.0213 34.5472 64.7575C34.0145 64.0297 33.6657 63.1837 33.5307 62.2918C33.2835 60.8229 33.3058 59.3592 33.7385 57.9205C34.396 55.7126 36.1056 54.3146 38.3951 54.0595C39.4543 53.9259 40.529 53.9878 41.5657 54.2423C41.7262 54.2844 41.8827 54.3436 42.0431 54.3949V66.621Z" fill="black"/>
<path d="M164.851 55.4088C163.682 51.7503 161.201 49.349 157.506 48.2772C154.739 47.465 151.799 47.4605 149.03 48.264C145.348 49.3069 142.835 51.653 141.484 55.2339C140.812 57.0145 140.571 58.87 140.564 60.8466C140.557 62.2799 140.748 63.7073 141.129 65.0889C142.225 68.8632 144.588 71.4499 148.35 72.6729C151 73.533 153.71 73.5934 156.413 72.9859C160.48 72.0653 163.319 69.6562 164.719 65.6991C165.909 62.3798 165.956 58.7577 164.851 55.4088ZM157.193 64.1342C157.009 64.6035 156.775 65.0514 156.494 65.4703C154.995 67.6651 151.842 67.5889 150.282 66.1699C149.534 65.4874 149.08 64.626 148.801 63.6713C148.44 62.3715 148.31 61.0182 148.418 59.6735C148.479 58.7175 148.617 57.7746 148.98 56.8816C149.136 56.492 149.327 56.1174 149.551 55.7625C150.982 53.5177 153.877 53.5269 155.354 54.4738C156.037 54.9218 156.583 55.5498 156.932 56.2885C157.382 57.1933 157.59 58.1625 157.692 59.158C157.74 59.6196 157.754 60.0786 157.775 60.406C157.745 61.7671 157.655 62.9835 157.193 64.1342Z" fill="black"/>
<path d="M111.497 72.2232V72.6308C111.179 72.7387 104.441 72.7702 103.835 72.6676C103.827 72.5033 103.816 72.327 103.816 72.1508C103.816 67.4784 103.816 62.8047 103.808 58.1323C103.813 57.5147 103.758 56.898 103.643 56.2912C103.368 54.9367 102.575 54.241 101.204 54.0556C99.6454 53.8425 98.1318 54.07 96.5932 54.5264V72.694H88.9251V49.5331C89.5181 49.3818 90.1086 49.224 90.707 49.0846C93.024 48.5194 95.3809 48.1325 97.757 47.9274C99.7888 47.7669 101.821 47.7025 103.848 47.9839C105.034 48.1256 106.191 48.4508 107.277 48.9479C109.61 50.0617 110.975 51.9002 111.301 54.4711C111.418 55.3893 111.479 56.3137 111.484 57.2393C111.497 62.2313 111.497 67.2285 111.497 72.2232Z" fill="black"/>
<path d="M85.1955 56.2215C85.2147 55.0283 85.1329 53.8357 84.9509 52.6563C84.7208 51.2992 84.0975 50.1722 82.9783 49.349C82.4657 48.9796 81.9029 48.6856 81.3069 48.4758C80.2061 48.0899 79.0534 47.8722 77.8877 47.8301C74.1017 47.6168 70.3209 48.3333 66.8754 49.9171C66.7582 49.9545 66.6578 50.0319 66.5918 50.1357C66.5257 50.2395 66.4981 50.3631 66.5138 50.4852C66.5256 52.1829 66.5138 53.882 66.5138 55.5797C66.5138 55.6994 66.5309 55.8204 66.5427 55.9913C66.7202 55.9111 66.8596 55.8598 66.9938 55.7901C69.6436 54.5158 72.4131 53.7215 75.3733 53.6992C75.9056 53.6898 76.4372 53.7374 76.9593 53.8412C77.6984 53.9938 78.0613 54.4475 78.1245 55.1931C78.1573 55.5968 78.1468 56.0058 78.1521 56.4135C78.1521 56.6765 78.1521 56.9395 78.1521 57.2236C77.8233 57.2604 77.5471 57.2933 77.2723 57.3222C75.5391 57.4772 73.8199 57.7616 72.1291 58.173C70.7088 58.5334 69.3385 59.016 68.0905 59.8063C66.4822 60.8268 65.4407 62.2471 65.0882 64.1342C64.8405 65.4491 64.8651 66.8007 65.1606 68.1057C65.5104 69.6693 66.3441 70.9094 67.7263 71.751C68.355 72.1239 69.032 72.4084 69.7383 72.5966C71.1967 73.0004 72.6906 73.1108 74.1964 73.1095C77.7668 73.1095 81.3135 72.7873 84.8484 72.3205C84.9649 72.2987 85.08 72.2697 85.1929 72.2337V71.7944C85.1947 66.6043 85.1955 61.4133 85.1955 56.2215ZM78.4887 67.3232C78.4349 67.36 78.3759 67.3888 78.3138 67.4087C76.9277 67.6336 75.5351 67.7927 74.128 67.6809C73.7375 67.6441 73.3537 67.5557 72.9865 67.4179C72.3592 67.1917 71.991 66.7236 71.8634 66.0595C71.6478 64.9561 72.0449 64.0514 73.0115 63.4898C73.6512 63.1374 74.3478 62.8997 75.0696 62.7876C76.1032 62.6061 77.146 62.4693 78.1863 62.3168C78.287 62.3106 78.388 62.3106 78.4887 62.3168V67.3232Z" fill="black"/>
<path d="M61.9189 66.8761C61.9323 68.7704 61.8344 70.6638 61.6257 72.5467C61.3811 74.5718 60.8367 76.4918 59.8122 78.2777C58.888 79.8612 57.583 81.1888 56.0156 82.14C55.3989 82.5253 54.7492 82.8581 54.1167 83.221C54.049 83.2698 53.9692 83.2992 53.8859 83.3059C53.8027 83.3126 53.7193 83.2965 53.6446 83.2592C51.3941 82.1826 49.1418 81.1082 46.8878 80.0359C46.8654 80.0254 46.851 79.9952 46.8089 79.9491C46.9009 79.8939 46.9877 79.84 47.0719 79.79C47.8807 79.3416 48.7092 78.9234 49.4942 78.4368C51.8127 77.0034 53.1343 74.8783 53.6827 72.2429C54.0772 70.3676 54.1811 68.4621 54.189 66.5526C54.2153 60.6887 54.2153 54.8236 54.2258 48.9597C54.2258 48.7664 54.2416 48.5757 54.2508 48.3614H61.8913C61.8992 48.506 61.9176 48.6428 61.9176 48.7769C61.9189 54.8104 61.9347 60.8439 61.9189 66.8761Z" fill="black"/>
<path d="M61.8966 36.585V44.3754C61.5626 44.4609 55.1214 44.4938 54.2824 44.4135C54.2588 44.3141 54.2429 44.213 54.235 44.1111C54.235 41.6966 54.235 39.2822 54.235 36.8677C54.235 36.7875 54.2521 36.7046 54.2653 36.585H61.8966Z" fill="black"/>
</svg>
