<svg width="186" height="116" viewBox="0 0 186 116" fill="none" xmlns="http://www.w3.org/2000/svg">
<rect x="0.09375" y="0.703125" width="185.907" height="115.264" rx="20" fill="white"/>
<path d="M91.9678 59.7323L91.5087 60.0857C90.1517 61.13 88.5074 61.7336 86.797 61.8151C85.5429 61.9029 84.2832 61.7656 83.0775 61.4096C82.5144 61.2279 81.9713 60.9892 81.4567 60.697C81.1583 60.5205 80.8987 60.2855 80.6934 60.0061C80.185 59.3427 80.2748 58.5287 80.8817 57.9522C81.2353 57.6252 81.6634 57.3895 82.1288 57.2657C82.7936 57.0759 83.4729 56.934 84.1406 56.7558C84.6809 56.611 85.2255 56.4661 85.7498 56.2778C86.0465 56.1776 86.3178 56.014 86.545 55.7984C87.0215 55.3016 87.4459 54.7541 87.9369 54.1747C87.2373 54.0429 86.6087 53.9633 86.0033 53.7982C85.3978 53.633 84.8257 53.3854 84.2015 53.1609C84.0986 53.2695 83.9712 53.3955 83.8524 53.5302C82.3461 55.2379 80.8455 56.9499 79.3319 58.6518C78.9392 59.1195 78.5101 59.5553 78.0486 59.9554C76.4554 61.2589 74.6579 61.2836 73.0009 60.064C72.28 59.5099 71.6484 58.8485 71.1281 58.1028C70.0201 56.5907 69.1902 54.9236 68.4544 53.2072C66.9842 49.773 65.9095 46.207 64.9782 42.5946C64.2098 39.6935 63.5972 36.7534 63.1431 33.7868C62.6665 30.5163 62.7607 27.2689 63.7948 24.0984C64.6103 21.6027 66.0659 19.575 68.3269 18.1758C69.8666 17.2227 71.5598 16.7027 73.3442 16.458C76.4308 16.035 79.4681 16.3884 82.4692 17.1098C83.7481 17.4168 85.0024 17.834 86.2625 18.2207C86.3674 18.2615 86.4808 18.2757 86.5925 18.262C86.7042 18.2484 86.8108 18.2073 86.9027 18.1425C88.9117 16.8548 91.1335 16.2595 93.5017 16.1596C95.3022 16.0805 97.1051 16.2467 98.8608 16.6535C99.0831 16.7068 99.3161 16.6942 99.5314 16.6173C101.244 16.066 103.013 15.7098 104.805 15.5556C106.678 15.365 108.568 15.4015 110.432 15.6642C115.003 16.3392 118.789 18.4017 121.679 22.0373C122.392 22.9338 122.668 23.9984 122.81 25.1079C123.039 26.8895 122.919 28.6667 122.665 30.4337C121.886 35.7002 120.147 40.6654 117.896 45.4654C116.758 47.888 115.457 50.2302 114.001 52.4758C113.939 52.5714 113.885 52.6713 113.814 52.7901C114.22 53.1377 114.709 53.213 115.19 53.2927C116.261 53.4694 117.331 53.3897 118.395 53.2463C119.179 53.142 119.955 52.974 120.738 52.861C121.112 52.8016 121.492 52.7831 121.87 52.806C122.984 52.8943 123.532 53.8706 123.054 54.8801C122.797 55.382 122.437 55.8235 121.996 56.175C120.623 57.3482 119.088 58.2231 117.324 58.6648C115.47 59.1283 113.595 59.3543 111.685 59.1414C111.294 59.0965 110.907 59.0154 110.473 58.9429C110.429 59.2326 110.383 59.5223 110.345 59.812C109.938 62.984 109.541 66.1589 109.121 69.3295C108.988 70.427 108.741 71.5079 108.387 72.5552C107.657 74.6409 106.274 76.1043 104.237 76.9453C102.795 77.5676 101.252 77.9248 99.6835 77.9998C97.2313 78.0852 95.2832 77.1524 93.9406 75.0653C93.1555 73.8577 92.6599 72.4851 92.4921 71.0546C92.0707 67.49 92.0446 63.911 92.0258 60.3363C92.0258 60.1915 92.0258 60.0394 92.0258 59.8902C92.0116 59.8358 91.9922 59.7829 91.9678 59.7323ZM90.0125 52.5062C90.1037 52.5496 90.1182 52.5627 90.1341 52.5627C90.1993 52.5627 90.2645 52.5627 90.3311 52.5627C91.5434 52.5627 92.5037 53.0609 93.2062 54.0299C93.7566 54.7808 94.0419 55.6933 94.0173 56.624C93.9927 59.0327 93.9681 61.4414 93.984 63.8487C93.9827 66.2247 94.1245 68.5986 94.4084 70.9576C94.5701 72.2226 95.0644 73.4221 95.8409 74.4338C96.1887 74.9092 96.6373 75.3018 97.1546 75.5835C97.672 75.8652 98.2452 76.0291 98.8333 76.0632C100.298 76.182 101.679 75.8329 103.045 75.3665C104.973 74.7075 106.214 73.4097 106.743 71.4384C106.778 71.311 106.817 71.185 106.847 71.0575C107.333 68.9993 107.534 66.8976 107.821 64.809C108.026 63.3065 108.211 61.8011 108.374 60.2929C108.519 58.9676 108.739 57.6466 108.723 56.3054C108.725 55.992 108.76 55.6798 108.829 55.374C109.085 54.1052 109.772 53.1797 111.001 52.7017C111.12 52.6568 111.235 52.5989 111.395 52.5264C111.25 52.341 111.145 52.1832 111.023 52.0311C110.391 51.2694 109.836 50.447 109.366 49.576C108.681 48.2609 107.991 46.9476 107.298 45.6363C106.252 43.6694 105.27 41.672 104.618 39.5341C104.184 38.0857 103.861 36.6272 104.063 35.1034C104.282 33.4508 105.077 32.1776 106.611 31.4694C107.19 31.1911 107.807 31.0021 108.442 30.9088C109.353 30.7944 110.281 30.8205 111.203 30.7886C111.376 30.7886 111.549 30.7886 111.782 30.7886C111.701 30.5496 111.652 30.3787 111.585 30.2092C110.913 28.5387 110.018 26.9669 108.924 25.5366C104.76 20.1036 99.2997 17.524 92.4299 18.1743C90.1193 18.3812 87.9537 19.389 86.3074 21.0234C85.0198 22.2719 84.0986 23.7652 83.3904 25.4005C82.6111 27.198 82.1462 29.0809 81.8478 31.0102C81.7667 31.5403 81.7218 32.0762 81.6508 32.6889C81.9043 32.5702 82.0853 32.4905 82.2534 32.4079C84.0016 31.5823 85.8063 31.0044 87.7732 31.0725C89.9458 31.1464 91.571 32.3514 92.2445 34.4183C92.3261 34.6516 92.3896 34.8908 92.4342 35.1339C92.6515 36.4838 92.889 37.8308 93.0614 39.1894C93.2018 40.4199 93.212 41.6618 93.0918 42.8945C92.9469 44.7021 92.4168 46.4127 91.697 48.074C91.1669 49.2979 90.7048 50.5508 90.2196 51.7935C90.1327 52.0195 90.082 52.2628 90.0125 52.5062ZM82.5706 52.0716C82.4692 51.9601 82.3852 51.8602 82.2925 51.7689C79.975 49.4732 79.0611 46.685 79.4376 43.4796C79.659 41.6789 79.7534 39.8649 79.7201 38.051C79.6955 37.0791 79.6303 36.1072 79.6057 35.1353C79.5588 32.771 79.8326 30.4113 80.4197 28.1206C81.1786 25.0717 82.417 22.2589 84.6099 19.9371C84.6616 19.8693 84.7062 19.7965 84.7432 19.7198C84.5491 19.6532 84.397 19.5952 84.2435 19.5489C81.9576 18.8418 79.5982 18.3996 77.2114 18.2308C75.6143 18.1136 74.0086 18.2258 72.4433 18.564C69.1119 19.3128 66.822 21.258 65.6691 24.5025C65.1332 26.0074 64.9014 27.5688 64.816 29.1533C64.7301 31.0493 64.8686 32.9488 65.2288 34.8123C65.9433 38.7857 66.8937 42.713 68.0749 46.5735C68.8657 49.1429 69.7637 51.6733 70.9514 54.0907C71.5308 55.277 72.1681 56.4386 73.0357 57.4438C73.4082 57.8833 73.83 58.2784 74.2929 58.6214C75.1199 59.2167 75.905 59.1906 76.7117 58.5736C77.0863 58.2764 77.4311 57.9436 77.7416 57.58C79.274 55.8535 80.7934 54.1154 82.3171 52.3802C82.4011 52.2831 82.4793 52.1788 82.5706 52.0658V52.0716ZM112.728 50.8999C112.834 50.7434 112.945 50.603 113.032 50.448C113.891 48.9083 114.805 47.3947 115.59 45.813C118.149 40.6639 120.092 35.3062 120.843 29.569C121.057 28.1145 121.073 26.6378 120.893 25.1789C120.793 24.3254 120.445 23.5198 119.893 22.8614C116.905 19.3403 113.035 17.6717 108.503 17.3922C106.74 17.2821 104.97 17.3794 103.229 17.6819C103.032 17.7166 102.838 17.7586 102.55 17.8166C102.711 17.9049 102.767 17.9382 102.825 17.9614C105.588 19.2899 108.015 21.2271 109.922 23.6276C111.595 25.6945 112.925 27.9598 113.771 30.4931C113.946 31.0252 114.036 31.5814 114.039 32.1414C114.062 33.6854 113.794 35.1947 113.577 36.7112C113.413 37.7885 113.375 38.8811 113.462 39.9672C113.584 41.3461 113.766 42.7192 113.884 44.0996C114.031 45.5486 113.883 47.0124 113.449 48.4028C113.204 49.084 112.924 49.7521 112.611 50.4045C112.522 50.6029 112.44 50.7637 112.728 50.8941V50.8999ZM87.9919 52.1643C88.0275 52.1233 88.0585 52.0787 88.0846 52.0311C88.6193 50.3002 89.2682 48.6067 90.027 46.9616C90.8139 45.1766 91.2124 43.2447 91.1958 41.294C91.1876 39.7771 91.0422 38.2641 90.7613 36.7735C90.653 36.1075 90.4951 35.4505 90.2891 34.808C89.9574 33.8375 89.2332 33.2886 88.2193 33.1017C87.4213 32.9569 86.6435 33.0481 85.8657 33.2133C84.5274 33.5077 83.2481 34.0247 82.081 34.7428C81.7189 34.96 81.5364 35.2121 81.5958 35.6625C81.6595 36.1506 81.6276 36.6518 81.6595 37.1443C81.8043 39.3082 81.6595 41.4605 81.3973 43.6071C81.2525 44.7847 81.2829 45.9492 81.6508 47.0833C82.4214 49.4558 83.9234 51.1389 86.3379 51.9268C86.868 52.1148 87.4303 52.1956 87.9919 52.1643ZM112.036 32.8555C110.587 32.6556 109.223 32.6151 107.892 33.0394C106.707 33.4189 106.065 34.2996 105.996 35.5423C105.954 36.3998 106.042 37.2588 106.256 38.0901C106.733 40.0063 107.531 41.7951 108.429 43.5434C109.298 45.2293 110.186 46.8993 111.068 48.5766C111.121 48.6485 111.18 48.7154 111.245 48.7765C111.343 48.5201 111.426 48.3231 111.495 48.1233C111.915 46.9182 112.005 45.6711 111.915 44.4139C111.825 43.1566 111.679 41.8878 111.547 40.6262C111.419 39.4783 111.419 38.3197 111.547 37.1718C111.668 36.1579 111.837 35.144 111.966 34.1373C112.008 33.7347 112.007 33.3233 112.033 32.8569L112.036 32.8555ZM82.6777 59.0718V59.2384C82.9993 59.3572 83.3121 59.5006 83.6409 59.5904C84.5502 59.8328 85.49 59.9406 86.4306 59.9105C88.6408 59.8525 90.3876 58.9169 91.7245 57.1701C91.8381 57.029 91.9223 56.8666 91.9721 56.6925C92.0218 56.5183 92.0361 56.336 92.0142 56.1562C91.9679 55.6573 91.727 55.1968 91.3436 54.8743C90.7642 54.3761 90.3195 54.4036 89.7909 54.9496C89.646 55.1046 89.5012 55.2668 89.365 55.432C89.0623 55.8028 88.7582 56.1721 88.4641 56.5487C87.8732 57.3329 87.0461 57.9066 86.1047 58.1854C85.3805 58.3998 84.6403 58.5721 83.9074 58.7648C83.4903 58.872 83.0818 58.9719 82.6748 59.0776L82.6777 59.0718ZM120.614 54.8338L119.88 54.9511C118.674 55.1524 117.464 55.3204 116.239 55.2871C115.013 55.2538 113.807 55.093 112.735 54.4036C112.606 54.3404 112.46 54.321 112.319 54.3486C112.142 54.3859 111.968 54.4373 111.799 54.5021C111.22 54.6759 110.897 55.0887 110.775 55.6608C110.723 55.9198 110.69 56.1821 110.675 56.4459C110.649 56.905 110.712 57.018 111.153 57.102C111.687 57.2075 112.227 57.2743 112.77 57.3019C113.859 57.3228 114.947 57.2257 116.016 57.0122C117.516 56.7424 118.932 56.1275 120.154 55.2162C120.278 55.1264 120.396 55.0177 120.612 54.8396L120.614 54.8338Z" fill="black"/>
<path d="M87.6487 33.8969C88.1988 33.9287 88.7359 34.0768 89.2245 34.3314C89.8879 34.7022 89.9487 35.2352 89.3882 35.761C89.1577 35.9738 88.8784 36.1266 88.5749 36.2061C88.2715 36.2855 87.9531 36.2892 87.6479 36.2166C87.3427 36.1441 87.06 35.9976 86.8248 35.7901C86.5895 35.5826 86.4089 35.3204 86.2988 35.0267C86.1467 34.6124 86.2423 34.314 86.658 34.1446C86.9813 34.0366 87.3125 33.9538 87.6487 33.8969Z" fill="black"/>
<path d="M109.344 33.4551C109.609 33.5058 109.869 33.577 110.122 33.6681C110.439 33.8028 110.509 34.0461 110.394 34.3604C109.96 35.5394 108.38 35.8812 107.509 34.9847C107.092 34.5501 107.138 34.1735 107.654 33.8636C108.138 33.5797 108.674 33.5058 109.344 33.4551Z" fill="black"/>
<path d="M51.252 94.5576H47.833V93.1777H51.252C51.9141 93.1777 52.4502 93.0723 52.8604 92.8613C53.2705 92.6504 53.5693 92.3574 53.7568 91.9824C53.9502 91.6074 54.0469 91.1797 54.0469 90.6992C54.0469 90.2598 53.9502 89.8467 53.7568 89.46C53.5693 89.0732 53.2705 88.7627 52.8604 88.5283C52.4502 88.2881 51.9141 88.168 51.252 88.168H48.2285V99.5762H46.5322V86.7793H51.252C52.2188 86.7793 53.0361 86.9463 53.7041 87.2803C54.3721 87.6143 54.8789 88.0771 55.2246 88.6689C55.5703 89.2549 55.7432 89.9258 55.7432 90.6816C55.7432 91.502 55.5703 92.2021 55.2246 92.7822C54.8789 93.3623 54.3721 93.8047 53.7041 94.1094C53.0361 94.4082 52.2188 94.5576 51.252 94.5576ZM57.0879 94.9268V94.7246C57.0879 94.0391 57.1875 93.4033 57.3867 92.8174C57.5859 92.2256 57.873 91.7129 58.248 91.2793C58.623 90.8398 59.0771 90.5 59.6104 90.2598C60.1436 90.0137 60.7412 89.8906 61.4033 89.8906C62.0713 89.8906 62.6719 90.0137 63.2051 90.2598C63.7441 90.5 64.2012 90.8398 64.5762 91.2793C64.957 91.7129 65.2471 92.2256 65.4463 92.8174C65.6455 93.4033 65.7451 94.0391 65.7451 94.7246V94.9268C65.7451 95.6123 65.6455 96.248 65.4463 96.834C65.2471 97.4199 64.957 97.9326 64.5762 98.3721C64.2012 98.8057 63.7471 99.1455 63.2139 99.3916C62.6865 99.6318 62.0889 99.752 61.4209 99.752C60.7529 99.752 60.1523 99.6318 59.6191 99.3916C59.0859 99.1455 58.6289 98.8057 58.248 98.3721C57.873 97.9326 57.5859 97.4199 57.3867 96.834C57.1875 96.248 57.0879 95.6123 57.0879 94.9268ZM58.7139 94.7246V94.9268C58.7139 95.4014 58.7695 95.8496 58.8809 96.2715C58.9922 96.6875 59.1592 97.0566 59.3818 97.3789C59.6104 97.7012 59.8945 97.9561 60.2344 98.1436C60.5742 98.3252 60.9697 98.416 61.4209 98.416C61.8662 98.416 62.2559 98.3252 62.5898 98.1436C62.9297 97.9561 63.2109 97.7012 63.4336 97.3789C63.6562 97.0566 63.8232 96.6875 63.9346 96.2715C64.0518 95.8496 64.1104 95.4014 64.1104 94.9268V94.7246C64.1104 94.2559 64.0518 93.8135 63.9346 93.3975C63.8232 92.9756 63.6533 92.6035 63.4248 92.2812C63.2021 91.9531 62.9209 91.6953 62.5811 91.5078C62.2471 91.3203 61.8545 91.2266 61.4033 91.2266C60.958 91.2266 60.5654 91.3203 60.2256 91.5078C59.8916 91.6953 59.6104 91.9531 59.3818 92.2812C59.1592 92.6035 58.9922 92.9756 58.8809 93.3975C58.7695 93.8135 58.7139 94.2559 58.7139 94.7246ZM73.3213 97.0537C73.3213 96.8193 73.2686 96.6025 73.1631 96.4033C73.0635 96.1982 72.8555 96.0137 72.5391 95.8496C72.2285 95.6797 71.7598 95.5332 71.1328 95.4102C70.6055 95.2988 70.1279 95.167 69.7002 95.0146C69.2783 94.8623 68.918 94.6777 68.6191 94.4609C68.3262 94.2441 68.1006 93.9893 67.9424 93.6963C67.7842 93.4033 67.7051 93.0605 67.7051 92.668C67.7051 92.293 67.7871 91.9385 67.9512 91.6045C68.1211 91.2705 68.3584 90.9746 68.6631 90.7168C68.9736 90.459 69.3457 90.2568 69.7793 90.1104C70.2129 89.9639 70.6963 89.8906 71.2295 89.8906C71.9912 89.8906 72.6416 90.0254 73.1807 90.2949C73.7197 90.5645 74.1328 90.9248 74.4199 91.376C74.707 91.8213 74.8506 92.3164 74.8506 92.8613H73.2246C73.2246 92.5977 73.1455 92.3428 72.9873 92.0967C72.835 91.8447 72.6094 91.6367 72.3105 91.4727C72.0176 91.3086 71.6572 91.2266 71.2295 91.2266C70.7783 91.2266 70.4121 91.2969 70.1309 91.4375C69.8555 91.5723 69.6533 91.7451 69.5244 91.9561C69.4014 92.167 69.3398 92.3896 69.3398 92.624C69.3398 92.7998 69.3691 92.958 69.4277 93.0986C69.4922 93.2334 69.6035 93.3594 69.7617 93.4766C69.9199 93.5879 70.1426 93.6934 70.4297 93.793C70.7168 93.8926 71.083 93.9922 71.5283 94.0918C72.3076 94.2676 72.9492 94.4785 73.4531 94.7246C73.957 94.9707 74.332 95.2725 74.5781 95.6299C74.8242 95.9873 74.9473 96.4209 74.9473 96.9307C74.9473 97.3467 74.8594 97.7275 74.6836 98.0732C74.5137 98.4189 74.2646 98.7178 73.9365 98.9697C73.6143 99.2158 73.2275 99.4092 72.7764 99.5498C72.3311 99.6846 71.8301 99.752 71.2734 99.752C70.4355 99.752 69.7266 99.6025 69.1465 99.3037C68.5664 99.0049 68.127 98.6182 67.8281 98.1436C67.5293 97.6689 67.3799 97.168 67.3799 96.6406H69.0146C69.0381 97.0859 69.167 97.4404 69.4014 97.7041C69.6357 97.9619 69.9229 98.1465 70.2627 98.2578C70.6025 98.3633 70.9395 98.416 71.2734 98.416C71.7188 98.416 72.0908 98.3574 72.3896 98.2402C72.6943 98.123 72.9258 97.9619 73.084 97.7568C73.2422 97.5518 73.3213 97.3174 73.3213 97.0537ZM81.0645 90.0664V91.3145H75.9229V90.0664H81.0645ZM77.6631 87.7549H79.2891V97.2207C79.2891 97.543 79.3389 97.7861 79.4385 97.9502C79.5381 98.1143 79.667 98.2227 79.8252 98.2754C79.9834 98.3281 80.1533 98.3545 80.335 98.3545C80.4697 98.3545 80.6104 98.3428 80.7568 98.3193C80.9092 98.29 81.0234 98.2666 81.0996 98.249L81.1084 99.5762C80.9795 99.6172 80.8096 99.6553 80.5986 99.6904C80.3936 99.7314 80.1445 99.752 79.8516 99.752C79.4531 99.752 79.0869 99.6729 78.7529 99.5146C78.4189 99.3564 78.1523 99.0928 77.9531 98.7236C77.7598 98.3486 77.6631 97.8447 77.6631 97.2119V87.7549ZM89.1328 90.0664H90.6094V99.374C90.6094 100.212 90.4395 100.927 90.0996 101.519C89.7598 102.11 89.2852 102.559 88.6758 102.863C88.0723 103.174 87.375 103.329 86.584 103.329C86.2559 103.329 85.8691 103.276 85.4238 103.171C84.9844 103.071 84.5508 102.898 84.123 102.652C83.7012 102.412 83.3467 102.087 83.0596 101.677L83.9121 100.71C84.3105 101.19 84.7266 101.524 85.1602 101.712C85.5996 101.899 86.0332 101.993 86.4609 101.993C86.9766 101.993 87.4219 101.896 87.7969 101.703C88.1719 101.51 88.4619 101.223 88.667 100.842C88.8779 100.467 88.9834 100.004 88.9834 99.4531V92.1582L89.1328 90.0664ZM82.585 94.9268V94.7422C82.585 94.0156 82.6699 93.3564 82.8398 92.7646C83.0156 92.167 83.2646 91.6543 83.5869 91.2266C83.915 90.7988 84.3105 90.4707 84.7734 90.2422C85.2363 90.0078 85.7578 89.8906 86.3379 89.8906C86.9355 89.8906 87.457 89.9961 87.9023 90.207C88.3535 90.4121 88.7344 90.7139 89.0449 91.1123C89.3613 91.5049 89.6104 91.9795 89.792 92.5361C89.9736 93.0928 90.0996 93.7227 90.1699 94.4258V95.2344C90.1055 95.9316 89.9795 96.5586 89.792 97.1152C89.6104 97.6719 89.3613 98.1465 89.0449 98.5391C88.7344 98.9316 88.3535 99.2334 87.9023 99.4443C87.4512 99.6494 86.9238 99.752 86.3203 99.752C85.752 99.752 85.2363 99.6318 84.7734 99.3916C84.3164 99.1514 83.9238 98.8145 83.5957 98.3809C83.2676 97.9473 83.0156 97.4375 82.8398 96.8516C82.6699 96.2598 82.585 95.6182 82.585 94.9268ZM84.2109 94.7422V94.9268C84.2109 95.4014 84.2578 95.8467 84.3516 96.2627C84.4512 96.6787 84.6006 97.0449 84.7998 97.3613C85.0049 97.6777 85.2656 97.9268 85.582 98.1084C85.8984 98.2842 86.2764 98.3721 86.7158 98.3721C87.2549 98.3721 87.7002 98.2578 88.0518 98.0293C88.4033 97.8008 88.6816 97.499 88.8867 97.124C89.0977 96.749 89.2617 96.3418 89.3789 95.9023V93.7842C89.3145 93.4619 89.2148 93.1514 89.0801 92.8525C88.9512 92.5479 88.7812 92.2783 88.5703 92.0439C88.3652 91.8037 88.1104 91.6133 87.8057 91.4727C87.501 91.332 87.1436 91.2617 86.7334 91.2617C86.2881 91.2617 85.9043 91.3555 85.582 91.543C85.2656 91.7246 85.0049 91.9766 84.7998 92.2988C84.6006 92.6152 84.4512 92.9844 84.3516 93.4062C84.2578 93.8223 84.2109 94.2676 84.2109 94.7422ZM94.7051 91.5605V99.5762H93.0791V90.0664H94.6611L94.7051 91.5605ZM97.6758 90.0137L97.667 91.5254C97.5322 91.4961 97.4033 91.4785 97.2803 91.4727C97.1631 91.4609 97.0283 91.4551 96.876 91.4551C96.501 91.4551 96.1699 91.5137 95.8828 91.6309C95.5957 91.748 95.3525 91.9121 95.1533 92.123C94.9541 92.334 94.7959 92.5859 94.6787 92.8789C94.5674 93.166 94.4941 93.4824 94.459 93.8281L94.002 94.0918C94.002 93.5176 94.0576 92.9785 94.1689 92.4746C94.2861 91.9707 94.4648 91.5254 94.7051 91.1387C94.9453 90.7461 95.25 90.4414 95.6191 90.2246C95.9941 90.002 96.4395 89.8906 96.9551 89.8906C97.0723 89.8906 97.207 89.9053 97.3594 89.9346C97.5117 89.958 97.6172 89.9844 97.6758 90.0137ZM102.949 99.752C102.287 99.752 101.687 99.6406 101.147 99.418C100.614 99.1895 100.154 98.8701 99.7676 98.46C99.3867 98.0498 99.0938 97.5635 98.8887 97.001C98.6836 96.4385 98.5811 95.8232 98.5811 95.1553V94.7861C98.5811 94.0127 98.6953 93.3242 98.9238 92.7207C99.1523 92.1113 99.4629 91.5957 99.8555 91.1738C100.248 90.752 100.693 90.4326 101.191 90.2158C101.689 89.999 102.205 89.8906 102.738 89.8906C103.418 89.8906 104.004 90.0078 104.496 90.2422C104.994 90.4766 105.401 90.8047 105.718 91.2266C106.034 91.6426 106.269 92.1348 106.421 92.7031C106.573 93.2656 106.649 93.8809 106.649 94.5488V95.2783H99.5479V93.9512H105.023V93.8281C105 93.4062 104.912 92.9961 104.76 92.5977C104.613 92.1992 104.379 91.8711 104.057 91.6133C103.734 91.3555 103.295 91.2266 102.738 91.2266C102.369 91.2266 102.029 91.3057 101.719 91.4639C101.408 91.6162 101.142 91.8447 100.919 92.1494C100.696 92.4541 100.523 92.8262 100.4 93.2656C100.277 93.7051 100.216 94.2119 100.216 94.7861V95.1553C100.216 95.6064 100.277 96.0312 100.4 96.4297C100.529 96.8223 100.714 97.168 100.954 97.4668C101.2 97.7656 101.496 98 101.842 98.1699C102.193 98.3398 102.592 98.4248 103.037 98.4248C103.611 98.4248 104.098 98.3076 104.496 98.0732C104.895 97.8389 105.243 97.5254 105.542 97.1328L106.526 97.915C106.321 98.2256 106.061 98.5215 105.744 98.8027C105.428 99.084 105.038 99.3125 104.575 99.4883C104.118 99.6641 103.576 99.752 102.949 99.752ZM115.614 96.3418C115.614 96.043 115.567 95.7793 115.474 95.5508C115.386 95.3164 115.228 95.1055 114.999 94.918C114.776 94.7305 114.466 94.5518 114.067 94.3818C113.675 94.2119 113.177 94.0391 112.573 93.8633C111.94 93.6758 111.369 93.4678 110.859 93.2393C110.35 93.0049 109.913 92.7383 109.55 92.4395C109.187 92.1406 108.908 91.7979 108.715 91.4111C108.521 91.0244 108.425 90.582 108.425 90.084C108.425 89.5859 108.527 89.126 108.732 88.7041C108.938 88.2822 109.23 87.916 109.611 87.6055C109.998 87.2891 110.458 87.043 110.991 86.8672C111.524 86.6914 112.119 86.6035 112.775 86.6035C113.736 86.6035 114.551 86.7881 115.219 87.1572C115.893 87.5205 116.405 87.998 116.757 88.5898C117.108 89.1758 117.284 89.8027 117.284 90.4707H115.597C115.597 89.9902 115.494 89.5654 115.289 89.1963C115.084 88.8213 114.773 88.5283 114.357 88.3174C113.941 88.1006 113.414 87.9922 112.775 87.9922C112.172 87.9922 111.674 88.083 111.281 88.2646C110.889 88.4463 110.596 88.6924 110.402 89.0029C110.215 89.3135 110.121 89.668 110.121 90.0664C110.121 90.3359 110.177 90.582 110.288 90.8047C110.405 91.0215 110.584 91.2236 110.824 91.4111C111.07 91.5986 111.381 91.7715 111.756 91.9297C112.137 92.0879 112.591 92.2402 113.118 92.3867C113.845 92.5918 114.472 92.8203 114.999 93.0723C115.526 93.3242 115.96 93.6084 116.3 93.9248C116.646 94.2354 116.9 94.5898 117.064 94.9883C117.234 95.3809 117.319 95.8262 117.319 96.3242C117.319 96.8457 117.214 97.3174 117.003 97.7393C116.792 98.1611 116.49 98.5215 116.098 98.8203C115.705 99.1191 115.233 99.3506 114.683 99.5146C114.138 99.6729 113.528 99.752 112.854 99.752C112.263 99.752 111.68 99.6699 111.105 99.5059C110.537 99.3418 110.019 99.0957 109.55 98.7676C109.087 98.4395 108.715 98.0352 108.434 97.5547C108.158 97.0684 108.021 96.5059 108.021 95.8672H109.708C109.708 96.3066 109.793 96.6846 109.963 97.001C110.133 97.3115 110.364 97.5693 110.657 97.7744C110.956 97.9795 111.293 98.1318 111.668 98.2314C112.049 98.3252 112.444 98.3721 112.854 98.3721C113.446 98.3721 113.947 98.29 114.357 98.126C114.768 97.9619 115.078 97.7275 115.289 97.4229C115.506 97.1182 115.614 96.7578 115.614 96.3418ZM126.047 98.1084L129.299 100.684L128.156 101.738L124.957 99.1982L126.047 98.1084ZM129.255 92.7734V93.582C129.255 94.543 129.135 95.4043 128.895 96.166C128.654 96.9277 128.309 97.5752 127.857 98.1084C127.406 98.6416 126.864 99.0488 126.231 99.3301C125.604 99.6113 124.901 99.752 124.122 99.752C123.366 99.752 122.672 99.6113 122.039 99.3301C121.412 99.0488 120.867 98.6416 120.404 98.1084C119.947 97.5752 119.593 96.9277 119.341 96.166C119.089 95.4043 118.963 94.543 118.963 93.582V92.7734C118.963 91.8125 119.086 90.9541 119.332 90.1982C119.584 89.4365 119.938 88.7891 120.396 88.2559C120.853 87.7168 121.395 87.3066 122.021 87.0254C122.654 86.7441 123.349 86.6035 124.104 86.6035C124.884 86.6035 125.59 86.7441 126.223 87.0254C126.855 87.3066 127.397 87.7168 127.849 88.2559C128.3 88.7891 128.646 89.4365 128.886 90.1982C129.132 90.9541 129.255 91.8125 129.255 92.7734ZM127.576 93.582V92.7559C127.576 91.9941 127.497 91.3203 127.339 90.7344C127.187 90.1484 126.961 89.6562 126.662 89.2578C126.363 88.8594 126 88.5576 125.572 88.3525C125.145 88.1475 124.655 88.0449 124.104 88.0449C123.583 88.0449 123.108 88.1475 122.681 88.3525C122.259 88.5576 121.896 88.8594 121.591 89.2578C121.286 89.6562 121.052 90.1484 120.888 90.7344C120.724 91.3203 120.642 91.9941 120.642 92.7559V93.582C120.642 94.3496 120.724 95.0293 120.888 95.6211C121.052 96.207 121.286 96.7021 121.591 97.1064C121.901 97.5049 122.271 97.8066 122.698 98.0117C123.126 98.2168 123.601 98.3193 124.122 98.3193C124.673 98.3193 125.162 98.2168 125.59 98.0117C126.018 97.8066 126.378 97.5049 126.671 97.1064C126.97 96.7021 127.195 96.207 127.348 95.6211C127.5 95.0293 127.576 94.3496 127.576 93.582ZM139.635 98.1963V99.5762H133.236V98.1963H139.635ZM133.57 86.7793V99.5762H131.874V86.7793H133.57Z" fill="black"/>
</svg>
