<svg width="186" height="117" viewBox="0 0 186 117" fill="none" xmlns="http://www.w3.org/2000/svg">
<rect x="-0.183594" y="0.868164" width="185.907" height="115.264" rx="20" fill="white"/>
<path d="M74.4143 67.9805C74.3953 65.7615 74.6436 63.5482 75.1538 61.3886C75.2664 60.8741 75.1538 60.6329 74.6233 60.4561C71.7552 59.6137 69.041 58.3163 66.5843 56.6134C65.4818 55.87 64.5231 54.9331 63.7546 53.848C62.9579 52.8183 62.5599 51.5356 62.6337 50.2358C62.7076 48.9359 63.2483 47.7065 64.1565 46.7737C65.7284 44.9963 67.6713 43.5858 69.8481 42.6417C71.4559 41.9021 73.0637 41.3072 74.6715 40.6962C75.1056 40.5355 75.2021 40.3747 75.1056 39.9406C74.4076 37.0646 74.1635 34.0973 74.3821 31.1459C74.4888 29.5541 74.9327 28.0031 75.6844 26.5959C76.2184 25.6082 77.0537 24.8167 78.0688 24.3367C79.0838 23.8566 80.2255 23.7131 81.3278 23.9269C83.652 24.247 85.8611 25.1362 87.759 26.5155C89.3668 27.5766 90.7655 28.7503 92.2126 29.924C92.6306 30.2777 92.8557 30.326 93.2737 29.924C95.4838 27.772 98.0588 26.0299 100.879 24.7791C101.975 24.3243 103.126 24.0161 104.303 23.8626C105.601 23.6525 106.93 23.9284 108.036 24.6374C109.143 25.3465 109.949 26.4388 110.3 27.7052C111.101 30.0276 111.365 32.5013 111.072 34.9403C110.955 36.2425 110.732 37.6185 110.507 38.9744C110.401 39.6068 110.168 40.482 110.783 40.6641C113.539 41.4703 116.161 42.6784 118.564 44.2495C119.739 45.0142 120.777 45.9708 121.635 47.0792C122.502 48.1115 122.957 49.4278 122.912 50.7751C122.868 52.1224 122.327 53.4057 121.394 54.3786C119.87 56.1222 117.982 57.5107 115.863 58.4463C114.255 59.202 112.535 59.829 110.863 60.4721C110.461 60.6168 110.332 60.7615 110.429 61.2117C111.145 64.1229 111.384 67.1311 111.136 70.1189C111.05 71.9031 110.495 73.6332 109.529 75.1352C109.068 75.7996 108.453 76.3416 107.735 76.7142C107.018 77.0869 106.221 77.2789 105.413 77.2736C103.528 77.2655 101.676 76.7846 100.026 75.8748C97.5583 74.6031 95.2889 72.9782 93.2898 71.0514C92.9361 70.7299 92.7592 70.7942 92.4377 71.0514C90.2385 73.1647 87.7074 74.9028 84.9453 76.1964C83.3266 77.0148 81.51 77.3603 79.7039 77.1932C78.9848 77.1305 78.2881 76.9109 77.6631 76.5498C77.0381 76.1886 76.4998 75.6948 76.0864 75.1031C75.3453 73.9029 74.8496 72.5738 74.6215 71.1922C74.4468 70.134 74.4143 69.0531 74.4143 67.9805ZM92.7753 40.7284C91.1675 40.7284 89.3989 40.8731 87.7107 41.0017C87.5533 41.0187 87.4009 41.0673 87.2628 41.1446C87.1246 41.222 87.0035 41.3265 86.9068 41.4519C84.9722 44.2599 83.2729 47.223 81.8262 50.3109C81.7625 50.4985 81.7625 50.702 81.8262 50.8897C83.3008 54.0196 85.0437 57.016 87.0355 59.8451C87.1092 59.9463 87.2028 60.0313 87.3107 60.0949C87.4185 60.1585 87.5383 60.1993 87.6625 60.2149C91.0289 60.4641 94.4091 60.4641 97.7755 60.2149C97.9562 60.2181 98.1345 60.1738 98.2925 60.0863C98.4506 59.9988 98.5828 59.8713 98.6759 59.7165C100.541 56.9363 102.191 54.0177 103.612 50.9861C103.692 50.7847 103.692 50.5605 103.612 50.3591C102.181 47.2184 100.492 44.2015 98.5634 41.3394C98.4797 41.2073 98.363 41.0993 98.2248 41.026C98.0867 40.9527 97.9318 40.9166 97.7755 40.9213L92.7753 40.7284ZM78.9781 74.304C79.9373 74.9227 81.174 74.6787 82.2726 74.3689C82.5109 74.3017 82.748 74.2302 82.9838 74.1545C85.7297 73.0214 88.2379 71.3835 90.3788 69.3265C90.5082 69.2022 90.6441 69.0604 90.6441 68.8809C90.6441 68.7009 90.5153 68.5539 90.4009 68.4149C88.9242 66.6198 87.4326 64.8297 85.9261 63.0446C85.7821 62.8747 85.5829 62.7608 85.3634 62.723L79.0614 61.6245C78.5903 61.5424 77.9227 61.3587 77.8067 61.8227C77.3016 64.0211 77.0587 66.2716 77.0832 68.5272C77.0272 70.0627 77.3013 71.5924 77.8871 73.0129C78.1142 73.5423 78.4941 73.9918 78.9781 74.304ZM120.349 50.662C120.349 50.6545 120.343 50.6485 120.336 50.6485H120.289C120.259 50.6485 120.233 50.6264 120.229 50.5967C120.193 50.3538 120.142 50.1134 120.076 49.8768C119.69 48.9287 119.057 48.1014 118.243 47.4811C115.767 45.5575 112.945 44.1274 109.93 43.2687C109.561 43.1401 109.512 43.3813 109.416 43.6385C108.596 45.8733 107.808 48.0921 106.94 50.3269C106.875 50.5365 106.875 50.7605 106.94 50.9701C107.76 53.1727 108.548 55.3754 109.4 57.5942C109.545 57.98 109.689 58.1087 110.075 57.9479C111.844 57.1922 113.644 56.533 115.365 55.6809C116.969 54.9678 118.368 53.8619 119.433 52.4653C119.791 51.8945 120.097 51.2926 120.348 50.667C120.349 50.6654 120.349 50.6637 120.349 50.662ZM65.2659 50.6485C65.2659 50.8414 65.3784 51.163 65.491 51.4524C65.9015 52.3637 66.5379 53.1551 67.34 53.7515C69.7894 55.626 72.5638 57.0322 75.5236 57.8997C75.8613 58.0122 75.9738 57.8997 76.0864 57.562C76.8903 55.3272 77.6942 53.1084 78.5302 50.8736C78.5944 50.6695 78.5944 50.4506 78.5302 50.2466C77.7102 48.0278 76.9224 45.8251 76.0703 43.6064C75.9256 43.2205 75.813 43.0597 75.3789 43.2205C74.157 43.7189 72.9029 44.1048 71.7132 44.6514C69.6883 45.4803 67.8591 46.7235 66.3431 48.3011C65.7115 48.9468 65.3297 49.7958 65.2659 50.6967V50.6485ZM108.605 33.3912C108.625 33.3793 108.617 33.3486 108.594 33.3486H108.49C108.46 33.3486 108.436 33.3239 108.438 33.2944C108.509 31.6753 108.274 30.0572 107.744 28.5252C107.66 28.159 107.503 27.8137 107.281 27.5103C107.059 27.207 106.778 26.952 106.455 26.7609C106.131 26.5699 105.772 26.4467 105.399 26.399C105.027 26.3512 104.648 26.3799 104.287 26.4833C103.26 26.6643 102.26 26.9778 101.313 27.4158C98.9543 28.5703 96.7857 30.0775 94.8815 31.8855C94.6243 32.1106 94.6886 32.2553 94.8815 32.4804L99.5602 38.1238C99.6959 38.3015 99.8891 38.4265 100.107 38.4775L106.521 39.595C106.982 39.6752 107.667 39.8431 107.712 39.3778C108.001 37.3717 108.305 35.3976 108.594 33.4076C108.595 33.4008 108.599 33.3948 108.605 33.3912ZM108.437 67.8716C108.436 67.8344 108.466 67.8037 108.503 67.8037C108.544 67.8037 108.575 67.7677 108.569 67.7277C108.3 65.907 108.017 64.086 107.747 62.2521C107.713 62.0197 107.76 61.7382 107.59 61.5767C107.491 61.4836 107.326 61.4702 107.101 61.5172L100.139 62.7391C99.8933 62.7974 99.6699 62.9259 99.4959 63.1089C97.9845 64.9257 96.4893 66.7425 94.9619 68.5433C94.7046 68.8487 94.7368 69.0095 94.9619 69.2507C96.4494 70.6138 98.0646 71.8306 99.7853 72.8843C101.158 73.7723 102.703 74.3587 104.319 74.6047C104.667 74.6933 105.028 74.7119 105.383 74.6594C105.738 74.6068 106.078 74.4842 106.385 74.2986C106.692 74.113 106.959 73.8682 107.17 73.5785C107.381 73.2887 107.532 72.9599 107.615 72.611C108.189 71.0978 108.468 69.4891 108.437 67.8716ZM90.518 32.5746C90.6549 32.4248 90.6752 32.1981 90.5405 32.0463C88.8184 30.4309 86.9009 29.0373 84.8328 27.8982C83.4369 27.048 81.8366 26.5924 80.2023 26.5798C79.8046 26.5782 79.413 26.6777 79.0643 26.8689C78.7156 27.0602 78.4211 27.3369 78.2087 27.6731C77.6649 28.5279 77.3239 29.4959 77.2118 30.5028C76.8508 33.4759 77.0416 36.4901 77.7746 39.3939C77.8549 39.7798 78.08 39.7155 78.3534 39.6673C80.6525 39.2653 82.9356 38.8794 85.2187 38.4614C85.5146 38.4023 85.7814 38.2434 85.9743 38.0112C87.0194 36.7732 88.0001 35.487 89.0452 34.2329C89.5052 33.6613 90.0136 33.126 90.518 32.5746ZM95.9133 38.1238C95.952 38.1238 95.9885 38.1056 96.0117 38.0746C96.0464 38.0282 96.0441 37.9639 96.0061 37.9202L93.9594 35.5654C93.3108 34.8192 92.1621 34.7776 91.5021 35.5137C90.5702 36.553 91.3506 38.1238 92.7465 38.1238H95.9133ZM89.6378 63.0928C89.5858 63.0928 89.5436 63.135 89.5436 63.187C89.5436 63.2093 89.5515 63.2308 89.5659 63.2478L90.8946 64.8199C91.8894 65.9969 93.7014 66.0038 94.7052 64.8344L96.0406 63.2786C96.0767 63.2365 96.0768 63.1743 96.0406 63.1321C96.0193 63.1072 95.9881 63.0928 95.9552 63.0928H89.6378ZM80.1439 47.1009C80.1596 47.1457 80.2019 47.1757 80.2494 47.1757C80.2898 47.1757 80.3271 47.1538 80.3469 47.1186L81.9284 44.3045C82.5855 43.1352 81.5726 41.7324 80.256 41.9883C79.3127 42.1716 78.7525 43.1499 79.0716 44.0562L80.1439 47.1009ZM105.428 54.1174C105.409 54.0621 105.357 54.0249 105.299 54.0249C105.25 54.0249 105.205 54.051 105.18 54.0935L103.607 56.8376C102.938 58.004 103.954 59.4152 105.272 59.1507C106.199 58.9648 106.751 58.0068 106.446 57.1122L105.428 54.1174ZM106.423 44.0449C106.731 43.1579 106.185 42.2035 105.265 42.0183C103.955 41.7548 102.948 43.1603 103.619 44.3154C104.284 45.4622 105.989 45.2978 106.423 44.0449ZM83.3337 59.7569C83.3938 59.7692 83.4501 59.7233 83.4501 59.6619C83.4501 59.645 83.4456 59.6283 83.4372 59.6137L80.2667 54.0969C80.2468 54.0623 80.2099 54.041 80.1699 54.041C80.122 54.041 80.0795 54.0715 80.0642 54.1169C79.6191 55.4398 79.1866 56.7752 78.7552 58.1C78.6701 58.3614 78.5645 58.787 78.8357 58.8322L83.3337 59.7569Z" fill="black"/>
<path d="M67.9684 89.3635C67.5133 89.201 67.1953 89.7065 67.1953 90.1897V91.8402C67.1953 92.3641 66.7706 92.7888 66.2467 92.7888H65.7965C65.5212 92.7888 65.2981 92.5657 65.2981 92.2904C65.2981 89.5572 65.2981 86.84 65.2981 84.1067C65.2981 83.6405 65.4267 83.4958 65.8929 83.5118C67.1631 83.5118 68.4493 83.5118 69.7034 83.6405C71.1987 83.7691 71.9383 84.4765 72.083 85.6985C72.2874 87.271 71.769 88.6128 70.5578 89.0169C70.5085 89.0333 70.5012 89.0195 70.4623 89.0541C70.4162 89.0951 70.3551 89.2096 70.3886 89.2615L71.5557 91.0725C72.0331 91.8133 71.5012 92.7888 70.6199 92.7888C70.5073 92.7888 70.3787 92.612 70.2983 92.4834C69.7034 91.6151 69.0764 90.7791 68.5458 89.8787C68.4277 89.6384 68.2206 89.4536 67.9684 89.3635ZM67.1864 86.3867C67.1923 86.4101 67.1946 86.4342 67.1935 86.4583C67.1792 86.7568 67.1798 87.0559 67.1953 87.3545C67.1953 87.467 67.3882 87.66 67.4847 87.66C68.0967 87.6733 68.709 87.6464 69.3175 87.5796C69.9124 87.5796 70.1214 87.2259 70.1697 86.647C70.2501 85.6502 69.9446 85.2965 68.9638 85.2322H68.385C67.1899 85.2003 67.1793 85.2 67.1792 86.327C67.1792 86.3469 67.1816 86.3674 67.1864 86.3867Z" fill="black"/>
<path d="M110.666 91.9246C110.372 91.5926 110.492 91.0981 110.844 90.829L111.417 90.3915C111.58 90.2675 111.815 90.3233 111.924 90.4963C111.935 90.5133 111.947 90.5293 111.961 90.5438C112.325 90.9206 112.791 91.1829 113.303 91.2981C113.824 91.4156 114.368 91.3748 114.866 91.181C115.042 91.1215 115.195 91.0093 115.304 90.8596C115.413 90.71 115.474 90.5303 115.477 90.345C115.502 90.1614 115.464 89.975 115.371 89.815C115.278 89.6549 115.134 89.5303 114.963 89.4607C114.416 89.2517 113.87 89.0909 113.355 88.914C112.841 88.7372 112.487 88.6568 112.053 88.496C111.572 88.334 111.156 88.0213 110.866 87.6043C110.576 87.1873 110.429 86.6882 110.445 86.1808C110.403 85.6466 110.537 85.1133 110.828 84.663C111.118 84.2127 111.549 83.8704 112.053 83.6887C112.763 83.3897 113.538 83.2743 114.305 83.3529C115.072 83.4316 115.807 83.7019 116.442 84.1389C116.484 84.1732 116.525 84.208 116.566 84.2434C117 84.6184 116.923 85.2818 116.472 85.6356L116.176 85.8676C116 86.0061 115.749 86.0178 115.59 85.8592C115.291 85.4991 114.888 85.2396 114.437 85.116C114.163 85.0409 113.879 85.0181 113.599 85.0469C113.236 85.0844 112.837 85.154 112.594 85.4259C112.471 85.5635 112.399 85.7392 112.39 85.9235C112.368 86.1093 112.412 86.297 112.515 86.4531C112.618 86.6093 112.773 86.7236 112.953 86.7757C113.693 87.0329 114.448 87.2259 115.204 87.4509C115.654 87.5315 116.078 87.7199 116.439 87.9999C116.8 88.2799 117.088 88.6432 117.278 89.0587C117.458 89.4714 117.535 89.9216 117.503 90.3706C117.471 90.8197 117.33 91.2542 117.093 91.6369C116.856 92.0196 116.529 92.339 116.141 92.5676C115.754 92.7963 115.316 92.9274 114.866 92.9496C113.789 93.1574 112.674 93.0571 111.651 92.6602C111.273 92.4839 110.939 92.2327 110.666 91.9246Z" fill="black"/>
<path d="M87.2302 91.9706C87.2285 92.4225 86.8621 92.7888 86.4102 92.7888H85.9308C85.8075 92.7888 85.7022 92.6997 85.6819 92.578C85.6526 92.4019 85.4545 92.3111 85.3019 92.404L85.2508 92.4351C84.9053 92.688 84.5115 92.867 84.0938 92.961C83.6761 93.0551 83.2436 93.0621 82.823 92.9818C82.424 92.9075 82.0569 92.7141 81.7699 92.4271C81.4829 92.1401 81.2895 91.773 81.2152 91.374C81.1099 90.9367 81.1431 90.4774 81.3102 90.0598C81.6412 89.2323 82.545 88.8148 83.4127 88.6109C83.8772 88.5018 84.3532 88.4415 84.8328 88.4317C85.1061 88.4317 85.5241 88.5925 85.5884 88.0941C85.6068 87.9853 85.6035 87.8739 85.5786 87.7664C85.5538 87.659 85.5079 87.5575 85.4436 87.4678C85.3794 87.3781 85.298 87.302 85.2042 87.244C85.0175 87.1284 84.7939 87.0859 84.5775 87.0488C84.2746 86.9969 83.9628 87.0107 83.6635 87.0908C83.48 87.1399 83.305 87.2129 83.1425 87.3073C82.8008 87.5057 82.3686 87.5837 82.0356 87.3712C81.5756 87.0775 81.5393 86.4198 82.0106 86.1447C82.1654 86.0543 82.3238 85.9698 82.4854 85.8914C83.5708 85.5297 84.7442 85.5297 85.8296 85.8914C86.2011 85.9746 86.5355 86.1765 86.782 86.4665C87.0286 86.7566 87.174 87.1191 87.1962 87.4992C87.2508 88.9849 87.236 90.459 87.2302 91.9706ZM85.624 90.2198C85.6217 90.2175 85.6199 90.215 85.6184 90.2122C85.5061 90.0021 85.3627 89.6055 85.2669 89.6215C84.8207 89.6413 84.3785 89.7087 83.9475 89.8221C83.6133 89.91 83.2738 90.0556 83.0976 90.3529C83.0088 90.5028 82.9535 90.6701 82.9356 90.8434C82.9372 90.9776 82.9718 91.1094 83.0363 91.2271C83.1642 91.4606 83.43 91.5794 83.6943 91.6117C83.8108 91.6259 83.9288 91.6285 84.0465 91.6193C84.2979 91.5997 84.5422 91.5265 84.763 91.4047C84.9837 91.2829 85.1759 91.1152 85.3266 90.9131C85.4737 90.7157 85.578 90.4898 85.6328 90.2499C85.6353 90.239 85.6319 90.2277 85.624 90.2198Z" fill="black"/>
<path d="M77.1168 89.7902C76.1405 89.7858 75.146 90.8971 76.0381 91.2936C76.4588 91.5092 76.9355 91.5909 77.404 91.5277C77.6595 91.4932 77.906 91.4165 78.1338 91.302C78.4674 91.1344 78.8764 91.0937 79.1812 91.3094C79.5919 91.5998 79.6318 92.1976 79.2125 92.4754C79.0695 92.5701 78.9223 92.6586 78.7714 92.7406C78.1709 92.9868 77.525 93.1026 76.8764 93.0805C76.2279 93.0583 75.5914 92.8986 75.0091 92.612C74.6984 92.45 74.4266 92.2223 74.2128 91.9446C73.999 91.667 73.8483 91.346 73.7711 91.0042C73.4096 89.8803 73.4096 88.6713 73.7711 87.5474C73.9925 86.8936 74.4344 86.3371 75.0211 85.9734C75.6078 85.6097 76.3027 85.4613 76.9867 85.5537C78.9 85.6984 79.7682 86.631 79.8968 88.7693C79.8968 89.7983 79.8968 89.7983 78.9482 89.7983L77.1168 89.7902ZM75.8559 87.2535C75.3157 87.7894 76.0697 88.5282 76.8307 88.5282C77.6006 88.5282 78.3582 87.7655 77.7908 87.2452C77.5541 87.0281 77.2213 86.9204 76.7938 86.9204C76.3814 86.9204 76.0723 87.0389 75.8559 87.2535Z" fill="black"/>
<path d="M94.7712 86.6447C94.8172 86.7596 94.7794 86.891 94.6792 86.9636C94.4255 87.1472 94.1705 87.3283 93.9083 87.4949C93.8198 87.5511 93.7274 87.5796 93.6226 87.5796C93.4777 87.5796 93.3299 87.5208 93.2112 87.4377C93.0257 87.3078 92.8142 87.2181 92.5901 87.1753C92.2918 87.1185 91.9836 87.1472 91.701 87.2582C91.4184 87.3692 91.1731 87.558 90.9933 87.8026C90.8135 88.0473 90.7067 88.3379 90.6852 88.6407C90.5967 89.173 90.5967 89.7162 90.6852 90.2485C90.7101 90.5556 90.8227 90.8491 91.0097 91.094C91.1966 91.3389 91.45 91.525 91.7397 91.63C92.0293 91.735 92.343 91.7546 92.6435 91.6864C92.944 91.6182 93.2185 91.4651 93.4345 91.2453C93.5957 91.1126 93.826 91.1047 93.9959 91.2261L94.2736 91.4244C94.6545 91.6964 94.7746 92.2333 94.4117 92.5289C94.35 92.5792 94.2854 92.6264 94.2184 92.6703C93.9199 92.8656 93.5799 92.9888 93.2255 93.03C92.5698 93.1266 91.9035 93.1266 91.2479 93.03C90.6709 92.9427 90.1373 92.672 89.7262 92.258C89.315 91.8439 89.048 91.3084 88.9648 90.7309C88.7399 89.8119 88.7399 88.8522 88.9648 87.9333C89.1347 87.191 89.5785 86.5402 90.2074 86.111C90.4636 85.9362 90.7428 85.8033 91.0346 85.7149C91.8855 85.457 92.8419 85.5037 93.6647 85.8406C94.0636 86.0039 94.423 86.2501 94.7192 86.5627C94.7417 86.5864 94.7591 86.6144 94.7712 86.6447Z" fill="black"/>
<path d="M104.525 92.896C104.071 92.7818 103.859 92.2865 104.013 91.8439C104.161 91.4186 104.6 91.1717 105.045 91.2392C105.322 91.2812 105.6 91.3155 105.879 91.3418C106.538 91.3418 106.811 91.1328 106.892 90.4736C106.887 90.1725 106.866 89.8719 106.827 89.5732C106.827 87.7082 106.827 85.8592 106.827 84.0103C106.827 83.6566 106.908 83.5279 107.294 83.5118C108.725 83.5118 108.725 83.5118 108.725 84.9267C108.725 86.8239 108.725 88.7211 108.725 90.6344C108.744 90.9242 108.706 91.2151 108.612 91.4899C108.518 91.7647 108.37 92.0181 108.177 92.2351C107.984 92.4522 107.749 92.6286 107.487 92.754C107.225 92.8794 106.941 92.9514 106.651 92.9657C105.942 93.0952 105.217 93.0701 104.525 92.896Z" fill="black"/>
<path d="M96.4089 87.6278C96.4089 87.3881 96.2146 87.1937 95.9748 87.1937C95.7351 87.1937 95.5407 86.9993 95.5407 86.7596V86.3255C95.5407 86.0857 95.7351 85.8914 95.9748 85.8914C96.2146 85.8914 96.4089 85.697 96.4089 85.4573V84.9014C96.4089 84.3748 96.8215 83.9364 97.348 83.9455C97.4338 83.9469 97.5197 83.9492 97.6055 83.9523C97.75 83.9576 97.9032 83.9801 98.0018 84.0859C98.0088 84.0934 98.0157 84.1012 98.0222 84.1092C98.0434 84.1348 98.0619 84.1622 98.0777 84.1912C98.1254 84.279 98.1293 84.3822 98.1293 84.4821C98.1293 84.5761 98.1293 84.6704 98.1293 84.7659C98.1293 85.4141 98.6547 85.9396 99.3029 85.9396C99.6727 85.9396 99.8014 86.0682 99.7692 86.422C99.7242 86.9175 99.3658 87.3223 98.8682 87.3223H98.5151C98.2257 87.3223 98.1132 87.4349 98.1132 87.7243C98.1132 88.7211 98.1132 89.7179 98.1132 90.7148C98.1132 91.6988 98.4892 91.8995 99.396 91.7188C99.4194 91.7142 99.4436 91.7116 99.4674 91.7116C99.6607 91.7116 99.8235 91.8704 99.8876 92.0528C99.9258 92.1615 99.9701 92.2661 99.9943 92.3708C100.079 92.7365 99.7898 93.1573 99.4161 93.1914C99.147 93.216 98.8753 93.2114 98.6058 93.1774C98.1028 93.1138 97.618 92.9488 97.1807 92.6924C96.9161 92.5218 96.7039 92.2813 96.5677 91.9975C96.4315 91.7137 96.3765 91.3977 96.4089 91.0846C96.4089 89.9752 96.4089 88.8819 96.4089 87.7725V87.6278Z" fill="black"/>
<path d="M92.711 56.1632C91.9791 56.1632 91.2544 56.0188 90.5784 55.7383C89.9024 55.4577 89.2884 55.0465 88.7717 54.5282C88.2549 54.0099 87.8455 53.3948 87.5668 52.718C87.2882 52.0412 87.1459 51.3161 87.148 50.5842C87.1565 49.0973 87.7531 47.6742 88.8075 46.6259C89.8619 45.5775 91.2884 44.989 92.7753 44.9891C94.2523 45.0017 95.6648 45.5963 96.7062 46.6438C97.7477 47.6913 98.3341 49.1071 98.3383 50.5842C98.3383 51.3209 98.1924 52.0504 97.909 52.7304C97.6256 53.4104 97.2104 54.0276 96.6872 54.5463C96.164 55.065 95.5433 55.475 94.8608 55.7525C94.1783 56.03 93.4477 56.1696 92.711 56.1632Z" fill="black"/>
</svg>
