<svg width="187" height="117" viewBox="0 0 187 117" fill="none" xmlns="http://www.w3.org/2000/svg">
<rect x="0.347656" y="0.868164" width="185.907" height="115.264" rx="20" fill="white"/>
<path d="M106.234 47.2913C106.234 51.8183 106.224 56.3471 106.248 60.8759C106.248 61.6592 105.979 62.1549 105.28 62.5466C102.199 64.2659 99.139 66.013 96.0809 67.7791C95.8394 67.9407 95.5548 68.0281 95.2629 68.0303C94.971 68.0324 94.6851 67.9492 94.4411 67.7912C91.2775 65.9766 88.0981 64.2001 84.9609 62.3473C84.5953 62.1324 84.2702 61.5275 84.2579 61.0977C84.2016 57.4927 84.2016 53.8877 84.2579 50.2828C84.2827 50.0379 84.3601 49.8011 84.485 49.588C84.6098 49.3749 84.7793 49.1905 84.982 49.047C88.0929 47.2081 91.2494 45.4455 94.3831 43.6447C94.9789 43.2981 95.5185 43.2842 96.1038 43.6621C96.631 44.0087 97.211 44.3085 97.7699 44.6223C98.7278 45.1595 98.8983 45.0573 98.8983 43.9411C98.8983 39.5285 98.8983 35.1158 98.8983 30.7032C98.8983 28.8713 99.0354 28.7967 100.687 29.6841C102.224 30.5178 103.74 31.393 105.289 32.2076C105.965 32.5629 106.24 33.0326 106.236 33.7934C106.222 38.2927 106.234 42.792 106.234 47.2913ZM98.7665 55.6798C99.2638 54.12 98.4923 53.3557 97.1741 52.5601C95.7241 51.6936 94.696 51.7265 93.2513 52.5688C91.9331 53.3366 91.5464 54.1286 91.5043 55.5966C91.4568 57.257 91.9718 58.1409 93.4551 58.9451C94.7821 59.6626 95.6995 59.6921 96.9984 58.9278C98.3605 58.1288 99.3605 57.3853 98.7665 55.6798Z" fill="black"/>
<path d="M54.8224 55.4597C54.8224 53.7266 54.84 51.9934 54.8224 50.2602C54.8101 49.5514 55.0509 49.0678 55.7012 48.7004C58.7476 46.9892 61.7882 45.2589 64.8229 43.5096C65.5452 43.0901 66.1428 43.0971 66.8599 43.5096C69.8606 45.2497 72.8766 46.9649 75.9078 48.6553C76.6002 49.0436 76.8832 49.5479 76.8762 50.333C76.8469 53.767 76.8469 57.1998 76.8762 60.6315C76.8762 61.4184 76.6073 61.9227 75.913 62.3109C72.8666 64.0221 69.8261 65.7553 66.7914 67.5104C66.1358 67.8882 65.561 67.8986 64.9072 67.5104C61.8526 65.7461 58.7875 63.9996 55.7117 62.2711C55.0755 61.9123 54.8224 61.4374 54.833 60.7216C54.8646 58.9625 54.8435 57.2033 54.8435 55.4441L54.8224 55.4597Z" fill="black"/>
<path d="M47.3493 57.2622C47.3493 59.6263 47.3493 61.9903 47.3493 64.3543C47.3493 65.4237 47.0189 65.6178 46.0892 65.1031C44.3562 64.1411 42.6426 63.1463 40.9044 62.1965C40.2611 61.8499 40.0256 61.3594 40.0256 60.6488C40.0467 58.5448 40.008 56.4407 40.0256 54.3366C40.0256 53.6208 39.8042 53.1078 39.1293 52.8097C38.9693 52.7404 38.8199 52.6364 38.667 52.5601C36.2996 51.2343 35.231 51.3175 33.1764 53.1044C32.9005 53.3453 32.7493 53.8566 32.7423 54.2465C32.6966 56.3506 32.6908 58.4552 32.7247 60.5604C32.737 61.3404 32.4717 61.8499 31.7616 62.2329C30.0427 63.1584 28.359 64.1394 26.6647 65.1031C25.7402 65.623 25.3887 65.4219 25.387 64.3613C25.3747 59.576 25.3518 54.7907 25.4028 50.0055C25.4291 49.7473 25.5115 49.4977 25.6443 49.2737C25.7772 49.0497 25.9573 48.8565 26.1726 48.7073C29.2852 46.8754 32.4453 45.1214 35.5843 43.3345C36.1555 43.0087 36.6757 43.0537 37.2346 43.3709C40.3478 45.148 43.4657 46.9147 46.5883 48.6709C47.1665 48.995 47.3862 49.4422 47.3792 50.0852C47.3599 52.4787 47.3792 54.8705 47.3792 57.264L47.3493 57.2622Z" fill="black"/>
<path d="M113.577 55.5152C113.577 53.782 113.597 52.0489 113.567 50.3157C113.556 49.6034 113.809 49.1337 114.446 48.7732C117.546 47.0296 120.636 45.2676 123.715 43.487C123.97 43.3195 124.271 43.231 124.578 43.2328C124.885 43.2347 125.184 43.3268 125.437 43.4974C128.439 45.2306 131.451 46.9528 134.473 48.664C135.22 49.0834 135.556 49.6155 135.54 50.47C135.483 53.8687 135.925 53.0697 133.065 54.7457C131.835 55.4684 130.589 56.1721 129.343 56.8688C128.508 57.335 128.03 57.108 128.188 56.1755C128.555 54.0316 127.634 52.8426 125.703 51.9899C124.762 51.5757 124.172 51.6225 123.242 52.0125C121.214 52.8634 120.493 54.1564 120.753 56.2934C120.873 57.2692 121.117 57.8324 121.992 58.3073C124.887 59.881 127.736 61.5379 130.604 63.1602C131.541 63.6905 131.557 64.077 130.624 64.597C128.84 65.5901 127.063 66.5953 125.239 67.5087C125.009 67.6086 124.76 67.6602 124.509 67.6602C124.258 67.6602 124.01 67.6086 123.78 67.5087C120.602 65.7859 117.452 64.0123 114.33 62.1879C113.946 61.9643 113.627 61.3213 113.607 60.8637C113.533 59.0942 113.577 57.3021 113.577 55.5152Z" fill="black"/>
<path d="M149.407 50.8166C149.683 50.7889 149.883 50.7785 150.082 50.7473C150.83 50.6329 151.098 50.8894 151.085 51.6814C151.036 54.8826 151.071 58.0837 151.054 61.2849C151.04 63.7113 149.27 64.9488 146.978 64.0285C145.791 63.5417 144.668 62.9168 143.631 62.1671C143.189 61.8499 142.835 61.1098 142.825 60.5552C142.754 57.1253 142.791 53.6919 142.793 50.2602C142.778 49.8824 142.872 49.5082 143.063 49.1805C143.254 48.8528 143.535 48.5848 143.874 48.4075L152.913 43.2513C153.665 42.8198 154.403 42.844 155.156 43.2739C158.114 44.9712 161.077 46.6599 164.045 48.3399C164.412 48.5243 164.719 48.8082 164.928 49.1581C165.137 49.5081 165.241 49.9097 165.226 50.3157C165.226 53.7196 165.239 57.1218 165.226 60.5258C165.226 61.3681 164.835 61.999 164.074 62.4322C161.086 64.1238 158.108 65.8622 155.087 67.5052C154.59 67.7756 153.773 67.883 153.28 67.6681C152.036 67.1257 150.892 66.3561 149.683 65.6646C150.857 64.7079 151.356 64.5866 152.446 65.3821C153.535 66.1776 154.412 66.1464 155.565 65.4202C157.929 63.9297 160.398 62.6021 162.845 61.2416C163.342 60.966 163.548 60.6714 163.548 60.0977C163.52 56.926 163.548 53.7526 163.511 50.5809C163.494 50.3974 163.437 50.2198 163.344 50.06C163.251 49.9003 163.124 49.7623 162.972 49.6554C160.205 48.0349 157.407 46.4681 154.63 44.8649C154.205 44.6188 153.873 44.5928 153.433 44.8493C150.632 46.4698 147.809 48.0505 145.015 49.6814C144.873 49.7815 144.754 49.9108 144.668 50.0604C144.581 50.21 144.529 50.3764 144.514 50.5479C144.476 53.7497 144.476 56.9514 144.514 60.1531C144.538 60.3492 144.602 60.5383 144.703 60.7093C144.803 60.8802 144.937 61.0294 145.097 61.148C145.77 61.6104 146.481 62.0162 147.222 62.3612C148.488 62.9713 149.368 62.4149 149.368 61.0336C149.368 57.9763 149.359 54.919 149.368 51.8617C149.352 51.515 149.387 51.1771 149.407 50.8166Z" fill="black"/>
<path d="M153.658 56.997C153.781 58.5292 154.804 58.9434 156.108 58.9417C156.924 58.9514 157.74 58.8992 158.548 58.7857C159.159 58.6886 159.616 58.309 159.639 57.614C159.662 56.8896 159.112 56.6799 158.564 56.5741C157.618 56.4008 156.657 56.2934 155.704 56.1374C155.156 56.055 154.614 55.9393 154.08 55.7908C153.073 55.4909 152.398 54.86 152.289 53.782C152.173 52.6468 152.56 51.6728 153.6 51.1563C155.606 50.1614 157.678 50.1909 159.676 51.1805C160.694 51.6849 161.138 52.7629 160.984 53.8981C160.21 54.0247 159.448 54.2448 159.121 53.139C159.024 52.8166 158.581 52.4024 158.263 52.3712C157.173 52.2508 156.072 52.2421 154.98 52.3452C154.664 52.3799 154.235 52.9952 154.198 53.3851C154.173 53.6364 154.725 54.1131 155.077 54.198C156.382 54.5048 157.727 54.6538 159.042 54.9259C160.692 55.2639 161.395 55.9658 161.467 57.2276C161.551 58.6869 160.857 59.7389 159.347 60.2363C157.583 60.829 155.662 60.7879 153.925 60.1202C152.938 59.7528 152.27 59.0612 152.04 58.0075C151.834 57.0716 151.917 56.9676 152.918 56.9676C153.122 56.9641 153.321 56.9814 153.658 56.997Z" fill="black"/>
<path d="M126.748 55.51C126.652 55.9537 126.701 56.5499 126.43 56.7839C125.903 57.2414 125.186 57.7648 124.55 57.7631C123.913 57.7614 123.177 57.2518 122.683 56.7683C122.395 56.4892 122.449 55.822 122.441 55.3297C122.441 54.9536 122.441 54.4146 122.674 54.2292C123.23 53.789 123.919 53.2465 124.555 53.2465C125.191 53.2465 125.903 53.7664 126.436 54.224C126.706 54.458 126.652 55.049 126.748 55.51Z" fill="black"/>
<path d="M68.1299 87.375V100.172H66.4248L59.9824 90.3018V100.172H58.2861V87.375H59.9824L66.4512 97.2715V87.375H68.1299ZM80.9883 93.3691V94.1777C80.9883 95.1387 80.8682 96 80.6279 96.7617C80.3877 97.5234 80.042 98.1709 79.5908 98.7041C79.1396 99.2373 78.5977 99.6445 77.9648 99.9258C77.3379 100.207 76.6348 100.348 75.8555 100.348C75.0996 100.348 74.4053 100.207 73.7725 99.9258C73.1455 99.6445 72.6006 99.2373 72.1377 98.7041C71.6807 98.1709 71.3262 97.5234 71.0742 96.7617C70.8223 96 70.6963 95.1387 70.6963 94.1777V93.3691C70.6963 92.4082 70.8193 91.5498 71.0654 90.7939C71.3174 90.0322 71.6719 89.3848 72.1289 88.8516C72.5859 88.3125 73.1279 87.9023 73.7549 87.6211C74.3877 87.3398 75.082 87.1992 75.8379 87.1992C76.6172 87.1992 77.3203 87.3398 77.9473 87.6211C78.5801 87.9023 79.1221 88.3125 79.5732 88.8516C80.0303 89.3848 80.3789 90.0322 80.6191 90.7939C80.8652 91.5498 80.9883 92.4082 80.9883 93.3691ZM79.3096 94.1777V93.3516C79.3096 92.5898 79.2305 91.916 79.0723 91.3301C78.9199 90.7441 78.6943 90.252 78.3955 89.8535C78.0967 89.4551 77.7305 89.1533 77.2969 88.9482C76.8691 88.7432 76.3828 88.6406 75.8379 88.6406C75.3105 88.6406 74.833 88.7432 74.4053 88.9482C73.9834 89.1533 73.6201 89.4551 73.3154 89.8535C73.0166 90.252 72.7852 90.7441 72.6211 91.3301C72.457 91.916 72.375 92.5898 72.375 93.3516V94.1777C72.375 94.9453 72.457 95.625 72.6211 96.2168C72.7852 96.8027 73.0195 97.2979 73.3242 97.7021C73.6348 98.1006 74.001 98.4023 74.4229 98.6074C74.8506 98.8125 75.3281 98.915 75.8555 98.915C76.4062 98.915 76.8955 98.8125 77.3232 98.6074C77.751 98.4023 78.1113 98.1006 78.4043 97.7021C78.7031 97.2979 78.9287 96.8027 79.0811 96.2168C79.2334 95.625 79.3096 94.9453 79.3096 94.1777ZM86.9912 100.172H84.3193L84.3369 98.792H86.9912C87.9053 98.792 88.667 98.6016 89.2764 98.2207C89.8857 97.834 90.3428 97.2949 90.6475 96.6035C90.958 95.9062 91.1133 95.0918 91.1133 94.1602V93.3779C91.1133 92.6455 91.0254 91.9951 90.8496 91.4268C90.6738 90.8525 90.416 90.3691 90.0762 89.9766C89.7363 89.5781 89.3203 89.2764 88.8281 89.0713C88.3418 88.8662 87.7822 88.7637 87.1494 88.7637H84.2666V87.375H87.1494C87.9873 87.375 88.752 87.5156 89.4434 87.7969C90.1348 88.0723 90.7295 88.4736 91.2275 89.001C91.7314 89.5225 92.1182 90.1553 92.3877 90.8994C92.6572 91.6377 92.792 92.4697 92.792 93.3955V94.1602C92.792 95.0859 92.6572 95.9209 92.3877 96.665C92.1182 97.4033 91.7285 98.0332 91.2188 98.5547C90.7148 99.0762 90.1055 99.4775 89.3906 99.7588C88.6816 100.034 87.8818 100.172 86.9912 100.172ZM85.2246 87.375V100.172H83.5283V87.375H85.2246ZM103.471 98.792V100.172H96.6943V98.792H103.471ZM97.0371 87.375V100.172H95.3408V87.375H97.0371ZM102.574 92.877V94.2568H96.6943V92.877H102.574ZM103.383 87.375V88.7637H96.6943V87.375H103.383ZM115.406 96.4365V87.375H117.094V96.4365C117.094 97.2803 116.921 97.9922 116.575 98.5723C116.229 99.1523 115.752 99.5947 115.143 99.8994C114.539 100.198 113.845 100.348 113.06 100.348C112.274 100.348 111.577 100.213 110.968 99.9434C110.358 99.6738 109.881 99.2637 109.535 98.7129C109.189 98.1621 109.017 97.4678 109.017 96.6299H110.713C110.713 97.1689 110.812 97.6113 111.012 97.957C111.211 98.3027 111.486 98.5576 111.838 98.7217C112.195 98.8857 112.603 98.9678 113.06 98.9678C113.505 98.9678 113.903 98.874 114.255 98.6865C114.612 98.4932 114.894 98.209 115.099 97.834C115.304 97.4531 115.406 96.9873 115.406 96.4365ZM126.788 96.9375C126.788 96.6387 126.741 96.375 126.647 96.1465C126.56 95.9121 126.401 95.7012 126.173 95.5137C125.95 95.3262 125.64 95.1475 125.241 94.9775C124.849 94.8076 124.351 94.6348 123.747 94.459C123.114 94.2715 122.543 94.0635 122.033 93.835C121.523 93.6006 121.087 93.334 120.724 93.0352C120.36 92.7363 120.082 92.3936 119.889 92.0068C119.695 91.6201 119.599 91.1777 119.599 90.6797C119.599 90.1816 119.701 89.7217 119.906 89.2998C120.111 88.8779 120.404 88.5117 120.785 88.2012C121.172 87.8848 121.632 87.6387 122.165 87.4629C122.698 87.2871 123.293 87.1992 123.949 87.1992C124.91 87.1992 125.725 87.3838 126.393 87.7529C127.066 88.1162 127.579 88.5938 127.931 89.1855C128.282 89.7715 128.458 90.3984 128.458 91.0664H126.771C126.771 90.5859 126.668 90.1611 126.463 89.792C126.258 89.417 125.947 89.124 125.531 88.9131C125.115 88.6963 124.588 88.5879 123.949 88.5879C123.346 88.5879 122.848 88.6787 122.455 88.8604C122.062 89.042 121.77 89.2881 121.576 89.5986C121.389 89.9092 121.295 90.2637 121.295 90.6621C121.295 90.9316 121.351 91.1777 121.462 91.4004C121.579 91.6172 121.758 91.8193 121.998 92.0068C122.244 92.1943 122.555 92.3672 122.93 92.5254C123.311 92.6836 123.765 92.8359 124.292 92.9824C125.019 93.1875 125.646 93.416 126.173 93.668C126.7 93.9199 127.134 94.2041 127.474 94.5205C127.819 94.8311 128.074 95.1855 128.238 95.584C128.408 95.9766 128.493 96.4219 128.493 96.9199C128.493 97.4414 128.388 97.9131 128.177 98.335C127.966 98.7568 127.664 99.1172 127.271 99.416C126.879 99.7148 126.407 99.9463 125.856 100.11C125.312 100.269 124.702 100.348 124.028 100.348C123.437 100.348 122.854 100.266 122.279 100.102C121.711 99.9375 121.192 99.6914 120.724 99.3633C120.261 99.0352 119.889 98.6309 119.607 98.1504C119.332 97.6641 119.194 97.1016 119.194 96.4629H120.882C120.882 96.9023 120.967 97.2803 121.137 97.5967C121.307 97.9072 121.538 98.165 121.831 98.3701C122.13 98.5752 122.467 98.7275 122.842 98.8271C123.223 98.9209 123.618 98.9678 124.028 98.9678C124.62 98.9678 125.121 98.8857 125.531 98.7217C125.941 98.5576 126.252 98.3232 126.463 98.0186C126.68 97.7139 126.788 97.3535 126.788 96.9375Z" fill="black"/>
</svg>
